<svg xmlns="http://www.w3.org/2000/svg" width="101.894" height="14.984" viewBox="0 0 101.894 14.984">
  <g id="Group_13" data-name="Group 13" transform="translate(-533 -4241)">
    <path id="Icon_ionic-ios-star" data-name="Icon ionic-ios-star" d="M17.242,8.562H12.126L10.571,3.757a.557.557,0,0,0-1.057,0L7.958,8.562H2.807a.568.568,0,0,0-.557.576.438.438,0,0,0,.01.1.558.558,0,0,0,.233.407L6.7,12.711,5.085,17.571a.59.59,0,0,0,.191.648.529.529,0,0,0,.313.14.667.667,0,0,0,.348-.13l4.1-3.029,4.1,3.029a.638.638,0,0,0,.348.13.492.492,0,0,0,.31-.14A.583.583,0,0,0,15,17.571l-1.614-4.859,4.171-3.1.1-.09a.613.613,0,0,0,.181-.385A.6.6,0,0,0,17.242,8.562Z" transform="translate(530.75 4237.625)" fill="#fff"/>
    <path id="Icon_ionic-ios-star-2" data-name="Icon ionic-ios-star" d="M17.242,8.562H12.126L10.571,3.757a.557.557,0,0,0-1.057,0L7.958,8.562H2.807a.568.568,0,0,0-.557.576.438.438,0,0,0,.01.1.558.558,0,0,0,.233.407L6.7,12.711,5.085,17.571a.59.59,0,0,0,.191.648.529.529,0,0,0,.313.14.667.667,0,0,0,.348-.13l4.1-3.029,4.1,3.029a.638.638,0,0,0,.348.13.492.492,0,0,0,.31-.14A.583.583,0,0,0,15,17.571l-1.614-4.859,4.171-3.1.1-.09a.613.613,0,0,0,.181-.385A.6.6,0,0,0,17.242,8.562Z" transform="translate(552.328 4237.625)" fill="#fff"/>
    <path id="Icon_ionic-ios-star-3" data-name="Icon ionic-ios-star" d="M17.242,8.562H12.126L10.571,3.757a.557.557,0,0,0-1.057,0L7.958,8.562H2.807a.568.568,0,0,0-.557.576.438.438,0,0,0,.01.1.558.558,0,0,0,.233.407L6.7,12.711,5.085,17.571a.59.59,0,0,0,.191.648.529.529,0,0,0,.313.14.667.667,0,0,0,.348-.13l4.1-3.029,4.1,3.029a.638.638,0,0,0,.348.13.492.492,0,0,0,.31-.14A.583.583,0,0,0,15,17.571l-1.614-4.859,4.171-3.1.1-.09a.613.613,0,0,0,.181-.385A.6.6,0,0,0,17.242,8.562Z" transform="translate(573.905 4237.625)" fill="#fff"/>
    <path id="Icon_ionic-ios-star-4" data-name="Icon ionic-ios-star" d="M17.242,8.562H12.126L10.571,3.757a.557.557,0,0,0-1.057,0L7.958,8.562H2.807a.568.568,0,0,0-.557.576.438.438,0,0,0,.01.1.558.558,0,0,0,.233.407L6.7,12.711,5.085,17.571a.59.59,0,0,0,.191.648.529.529,0,0,0,.313.14.667.667,0,0,0,.348-.13l4.1-3.029,4.1,3.029a.638.638,0,0,0,.348.13.492.492,0,0,0,.31-.14A.583.583,0,0,0,15,17.571l-1.614-4.859,4.171-3.1.1-.09a.613.613,0,0,0,.181-.385A.6.6,0,0,0,17.242,8.562Z" transform="translate(617.06 4237.625)" fill="#fff"/>
    <path id="Icon_ionic-ios-star-5" data-name="Icon ionic-ios-star" d="M17.242,8.562H12.126L10.571,3.757a.557.557,0,0,0-1.057,0L7.958,8.562H2.807a.568.568,0,0,0-.557.576.438.438,0,0,0,.01.1.558.558,0,0,0,.233.407L6.7,12.711,5.085,17.571a.59.59,0,0,0,.191.648.529.529,0,0,0,.313.14.667.667,0,0,0,.348-.13l4.1-3.029,4.1,3.029a.638.638,0,0,0,.348.13.492.492,0,0,0,.31-.14A.583.583,0,0,0,15,17.571l-1.614-4.859,4.171-3.1.1-.09a.613.613,0,0,0,.181-.385A.6.6,0,0,0,17.242,8.562Z" transform="translate(595.482 4237.625)" fill="#fff"/>
  </g>
</svg>
